<svg width="70" height="15" viewBox="0 0 70 15" fill="none" xmlns="http://www.w3.org/2000/svg">
<path d="M69.79 4.2702H68.2614C67.993 4.2702 67.713 4.55925 67.713 4.55925L61.9253 12.7406C61.8203 12.9165 61.6569 12.9165 61.5403 12.7406L56.1377 4.55925C56.1377 4.55925 55.916 4.2702 55.5426 4.2702H45.2742C45.1109 4.2702 44.9475 4.09426 44.9475 3.91831V1.21634C44.9475 0.801616 44.6791 0.512566 44.294 0.512566H28.5064C26.0443 0.625672 25.0058 0.864452 23.9207 1.56822C22.8821 2.20916 22.3337 3.0386 22.3337 4.04399C22.3337 5.09964 23.1505 6.1553 24.7375 7.16068C25.1692 7.44973 26.6511 8.21634 29.1599 9.4605C30.7468 10.2899 31.6219 10.9309 31.5636 11.5718C31.4586 12.6275 30.5834 12.9794 28.5064 12.9794H18.9498C18.7281 12.9794 18.5181 12.9165 18.5181 12.7406C18.5181 12.6275 18.5764 12.5646 18.6814 12.5018C20.8168 11.0943 21.5169 9.27199 21.5169 7.56284C21.5169 4.33303 19.0548 0.5 9.22987 0.5H0.653443C0.268379 0.5 0 0.789047 0 1.20377V13.7962C0 14.211 0.268379 14.5 0.653443 14.5H9.22987C9.55659 14.5 9.88331 14.5 10.1634 14.5H31.6219C33.5823 14.5 35.1225 14.1481 36.2077 13.4443C37.2462 12.8034 37.7363 11.974 37.7363 10.9686C37.7363 9.91293 36.9195 8.90754 35.3326 7.85189C34.9475 7.56284 33.4189 6.79623 30.9102 5.55206C29.3232 4.78546 28.5064 4.14452 28.5064 3.6167C28.5064 2.56104 29.5449 2.03321 31.6219 2.03321H38.8798C39.0432 2.03321 39.2065 2.20916 39.2065 2.3851V11.4964C39.2065 12.8537 40.0233 14.4372 42.5321 14.4372H62.4621C62.9522 14.4372 63.1739 14.0853 63.1739 14.0853L70 4.43357C69.9533 4.49641 70.07 4.2702 69.79 4.2702ZM7.92299 12.9668H5.78763C5.62427 12.9668 5.46091 12.7908 5.46091 12.6149V2.32226C5.46091 2.14632 5.62427 1.97038 5.78763 1.97038H7.92299C13.1622 1.97038 15.8926 4.2702 15.8926 7.43716C15.8926 10.6795 13.1039 12.9668 7.92299 12.9668ZM55.7526 13.0296H46.5344C45.2742 13.0296 44.9475 12.6149 44.9475 11.5592V6.02962C44.9475 5.85368 45.1109 5.74057 45.2742 5.74057H50.6301C50.7935 5.74057 51.0152 5.85368 51.1202 5.97935L55.9277 12.7406C55.9743 12.9165 55.9277 13.0296 55.7526 13.0296Z" fill="#179EDB"/>
</svg>
