<svg width="70" height="15" viewBox="0 0 70 15" fill="none" xmlns="http://www.w3.org/2000/svg">
<g clip-path="url(#clip0_2868_18266)">
<path d="M69.56 4.70651H68.0769C67.8103 4.70651 67.5786 4.94985 67.5671 4.96142L61.9474 12.3193C61.8429 12.4584 61.6692 12.4468 61.5765 12.3077L56.3853 4.96142C56.3853 4.94985 56.1884 4.70651 55.8291 4.70651H45.8642C45.6903 4.70651 45.5513 4.56747 45.5513 4.39365V1.96033C45.5513 1.61272 45.2732 1.33463 44.9256 1.33463H40.592C40.2444 1.33463 39.9663 1.61272 39.9663 1.96033V11.4155C40.0358 12.5742 40.8702 13.872 43.1644 13.872H62.4107C62.8627 13.872 63.0944 13.5823 63.0944 13.5823L69.6875 4.91507C69.7222 4.91507 69.8614 4.70651 69.56 4.70651ZM55.9915 12.5626H47.1039C45.8642 12.5626 45.5746 12.2151 45.5746 11.2533V6.31712C45.5746 6.15492 45.702 6.01586 45.8642 6.00429H51.0322C51.1944 6.01586 51.3913 6.10857 51.4955 6.23604L56.1304 12.3193C56.2117 12.4584 56.1652 12.5626 55.9915 12.5626Z" fill="#008B3B"/>
<path d="M30.6614 1.12606L30.0242 1.11447H29.0624V1.12606C22.7474 1.31145 20.8007 4.27779 20.5458 6.97762H12.4695C12.3073 6.98919 12.1798 7.11666 12.1798 7.29046V8.07839C12.1798 8.24062 12.3073 8.37966 12.4695 8.39125H15.4243C15.5981 8.40285 15.7487 8.54188 15.7487 8.71571V11.288C15.6444 12.1687 14.8333 12.4815 12.9794 12.4931C8.20542 12.3773 5.66781 10.3495 5.66781 7.58016C5.66781 4.72969 8.34446 2.65557 13.3849 2.65557H18.1125C18.2747 2.64398 18.4022 2.51652 18.4022 2.34272V1.60114C18.4022 1.43891 18.2747 1.29987 18.1125 1.28828H12.1567C2.63196 1.28828 0.233398 4.71809 0.233398 7.55697C0.233398 10.4074 2.63196 13.8257 12.1567 13.8257H15.7371C17.6142 13.8257 18.9584 13.6866 20.0244 13.0725C20.4184 12.8407 20.9745 12.412 21.0557 11.682V11.6704C21.0557 11.6241 21.0673 11.5777 21.0673 11.5314V11.0563C21.102 10.8246 21.2063 10.813 21.2295 10.813C21.3222 10.8014 21.3917 10.8246 21.5307 10.952C22.6663 12.5974 24.9374 13.9068 29.0624 14.0342V14.0458H30.6614V14.0342C37.4632 13.8373 39.2012 10.419 39.2012 7.55697C39.2012 4.74129 37.4632 1.32304 30.6614 1.12606ZM29.92 12.7712C27.7762 12.7944 26.0034 10.4886 25.9802 7.63808C25.9455 4.78761 27.672 2.447 29.8155 2.43542C31.9594 2.41224 33.7206 4.71809 33.7553 7.56856C33.7786 10.419 32.0636 12.7481 29.92 12.7712Z" fill="#E30613"/>
</g>
<defs>
<clipPath id="clip0_2868_18266">
<rect width="70" height="13.0916" fill="white" transform="translate(0 0.954193)"/>
</clipPath>
</defs>
</svg>
