<svg width="70" height="13" viewBox="0 0 70 13" fill="none" xmlns="http://www.w3.org/2000/svg">
<g clip-path="url(#clip0_2868_18278)">
<path d="M35.1335 8.043C35.1101 7.98466 35.0868 7.92633 35.0635 7.868C34.6085 6.468 34.1535 5.068 33.6985 3.668C33.6401 3.50466 33.5818 3.44633 33.3951 3.44633C32.6718 3.458 31.9368 3.458 31.2135 3.44633C31.0501 3.44633 30.9801 3.493 30.9335 3.65633C30.6768 4.508 30.4085 5.35966 30.1401 6.21133C29.9651 6.75966 29.8018 7.308 29.6268 7.85633C29.5451 7.82133 29.5568 7.763 29.5451 7.728C29.1835 6.37466 28.8218 5.02133 28.4718 3.668C28.4251 3.493 28.3551 3.458 28.1918 3.458C27.3285 3.46966 26.4651 3.46966 25.5901 3.458C25.3568 3.458 25.2868 3.48133 25.3801 3.738C25.5435 4.21633 25.6835 4.718 25.8351 5.19633C23.4901 2.093 18.1118 2.71133 16.8635 6.468C16.7818 5.11466 16.3968 3.948 15.0201 3.44633C13.4568 2.87466 12.1385 3.30633 11.0418 4.63633V4.30966C11.0418 3.038 11.0418 1.75466 11.0418 0.482995C11.0418 0.354661 11.0651 0.237993 10.8551 0.261327C9.94512 0.366327 9.02346 0.459662 8.11345 0.541328C7.90345 0.564662 7.83345 0.634661 7.83345 0.856327C7.84512 3.353 7.84512 5.84966 7.84512 8.34633C7.84512 8.393 7.84512 8.43966 7.84512 8.48633C7.84512 8.533 7.85679 8.59133 7.79846 8.62633C7.58846 7.89133 7.06346 7.43633 6.43346 7.10966C5.90846 6.84133 5.34846 6.65466 4.77679 6.49133C4.34512 6.363 3.91346 6.258 3.51679 6.048C3.33012 5.95466 3.16679 5.82633 3.20179 5.593C3.23679 5.348 3.42346 5.25466 3.64512 5.208C3.87846 5.16133 4.11179 5.173 4.35679 5.208C5.08012 5.313 5.76846 5.56966 6.41012 5.91966C6.60846 6.02466 6.67845 5.98966 6.77179 5.803C7.04012 5.278 7.32012 4.753 7.62346 4.25133C7.74012 4.053 7.68179 3.983 7.51846 3.878C6.37512 3.23633 5.13845 2.94466 3.83179 2.968C3.14345 2.97966 2.47846 3.108 1.86012 3.44633C0.810118 4.018 0.34345 4.90466 0.366784 6.09466C0.390117 7.21466 1.00845 7.903 1.97679 8.358C2.44345 8.57966 2.94512 8.71966 3.44679 8.85966C3.90179 8.988 4.36845 9.093 4.78845 9.303C4.97512 9.39633 5.09179 9.53633 5.06846 9.758C5.04512 9.99133 4.87012 10.108 4.67179 10.1547C4.46179 10.2013 4.24012 10.213 4.01846 10.1897C3.03846 10.1197 2.16346 9.78133 1.33512 9.268C1.18346 9.17466 1.12512 9.17466 1.03178 9.338C0.716784 9.863 0.390118 10.388 0.0517845 10.913C-0.0298821 11.0413 -0.0182155 11.0997 0.110118 11.1813C1.77846 12.278 3.59845 12.6747 5.54679 12.278C6.50345 12.0914 7.28512 11.5897 7.70512 10.6447C7.77512 10.5047 7.81012 10.3413 7.86846 10.2013C7.90346 10.8663 7.91512 11.543 7.90345 12.1964C7.89179 12.453 7.97346 12.4997 8.20679 12.488C9.08179 12.4764 9.95679 12.4764 10.8318 12.488C11.0651 12.488 11.1118 12.4297 11.1118 12.1964C11.1001 10.668 11.1118 9.13966 11.1118 7.59966C11.1118 7.28466 11.1468 6.98133 11.2985 6.70133C11.5435 6.23466 12.0218 5.98966 12.6051 6.048C13.1301 6.10633 13.4685 6.398 13.6318 6.888C13.7135 7.133 13.7368 7.38966 13.7368 7.64633C13.7368 9.17466 13.7368 10.703 13.7368 12.243C13.7368 12.4297 13.7718 12.488 13.9701 12.488C14.8685 12.4764 15.7785 12.4764 16.6768 12.488C16.8751 12.488 16.9218 12.4297 16.9101 12.243C16.8985 11.6363 16.9101 11.018 16.9101 10.4113V9.50133C17.7968 11.788 19.9318 12.8497 22.0901 12.698C23.3268 12.6164 24.4235 12.1614 25.3218 11.2863C26.2201 10.4113 26.6868 9.32633 26.7451 8.06633C26.7801 8.113 26.8035 8.148 26.8151 8.19466C27.2351 9.548 27.6551 10.9013 28.0635 12.2547C28.1218 12.4297 28.1918 12.4764 28.3668 12.4764C29.1135 12.4647 29.8601 12.4647 30.6068 12.4764C30.7935 12.4764 30.8751 12.4297 30.9218 12.243C31.1668 11.4497 31.4235 10.668 31.6801 9.88633C31.9018 9.20966 32.1235 8.52133 32.3568 7.798C32.4035 7.92633 32.4268 8.008 32.4501 8.078C32.9051 9.513 33.3601 10.948 33.8151 12.383C33.9551 12.348 33.9668 12.2314 33.9901 12.1264C34.3868 10.8547 34.7835 9.59466 35.1685 8.323C35.1451 8.24133 35.2035 8.148 35.1335 8.043ZM23.5251 8.47466C23.3618 9.20966 22.9185 9.723 22.1718 9.933C20.9118 10.2713 19.7568 9.31466 19.7568 7.73966C19.7801 7.12133 20.0601 6.44466 20.8301 6.07133C21.5301 5.74466 22.2301 5.81466 22.8251 6.30466C23.5018 6.87633 23.7118 7.63466 23.5251 8.47466ZM66.4468 8.17133C66.3185 8.01966 66.3185 7.92633 66.4468 7.77466C67.5785 6.40966 68.6985 5.04466 69.8068 3.67966C69.8651 3.62133 69.9468 3.563 69.9351 3.44633H69.6668C68.5235 3.44633 67.3918 3.458 66.2485 3.44633C66.0035 3.44633 65.8518 3.51633 65.7001 3.703C65.2218 4.30966 64.7318 4.90466 64.2301 5.523C63.7051 4.86966 63.1918 4.25133 62.6785 3.60966C62.6085 3.51633 62.5385 3.44633 62.3985 3.44633C60.7418 3.44633 59.0851 3.458 57.4285 3.44633C57.2651 3.44633 57.2418 3.51633 57.2418 3.65633C57.2535 3.92466 57.2418 4.193 57.2418 4.44966C57.2185 4.46133 57.1835 4.473 57.1601 4.49633C57.1018 4.42633 57.0668 4.34466 56.9968 4.27466C55.7251 2.933 53.8235 2.968 52.5635 3.74966C51.2918 4.53133 50.7201 5.733 50.5218 7.168C50.4635 7.57633 50.4751 7.98466 50.4518 8.393C50.4285 8.36966 50.4168 8.34633 50.4051 8.323C49.9268 6.783 49.4485 5.23133 48.9818 3.69133C48.9351 3.528 48.8768 3.458 48.6901 3.458C47.9201 3.46966 47.1618 3.46966 46.3918 3.458C46.2168 3.458 46.1585 3.51633 46.1118 3.668C45.9485 4.21633 45.7735 4.76466 45.5868 5.30133C45.2835 6.223 44.9918 7.14466 44.6651 8.148C44.1635 6.56133 43.6968 5.04466 43.2185 3.528C43.0668 3.55133 43.0551 3.69133 43.0201 3.78466C42.6351 5.02133 42.2385 6.258 41.8651 7.49466C41.8418 7.588 41.7835 7.68133 41.8535 7.78633C41.8768 7.833 41.9001 7.89133 41.9118 7.938C42.3668 9.373 42.8218 10.808 43.2651 12.2547C43.3118 12.4064 43.3585 12.4764 43.5335 12.4764C44.2685 12.4647 45.0151 12.4647 45.7501 12.4764C45.9135 12.4764 45.9718 12.418 46.0185 12.278C46.2285 11.578 46.4501 10.878 46.6718 10.1663C46.8935 9.45466 47.1151 8.743 47.3601 7.973C47.4535 8.323 47.5235 8.603 47.6051 8.883C47.8968 10.003 48.2001 11.1347 48.4918 12.2547C48.5151 12.348 48.5035 12.4764 48.6785 12.4764C49.6585 12.4647 50.6385 12.4764 51.6535 12.4764C51.4901 11.9514 51.3385 11.438 51.1868 10.9363C51.9218 11.928 52.8668 12.558 54.1035 12.6864C55.3751 12.8147 56.3785 12.313 57.2068 11.2863C57.2068 11.6597 57.2185 11.9397 57.2068 12.2197C57.1951 12.4297 57.2535 12.4764 57.4635 12.4764C59.0851 12.4647 60.7068 12.4647 62.3285 12.4764C62.5035 12.4764 62.6085 12.418 62.7135 12.2897C63.2035 11.6713 63.6935 11.0763 64.2068 10.4463C64.7201 11.0763 65.2101 11.683 65.7118 12.3014C65.8168 12.4297 65.9218 12.4764 66.0851 12.4764C67.2868 12.4647 68.4885 12.4764 69.6901 12.4647C69.7601 12.4647 69.8301 12.4997 69.8885 12.418C69.8418 12.3597 69.7951 12.2897 69.7368 12.2314C68.6751 10.878 67.5668 9.52466 66.4468 8.17133ZM57.4168 8.13633C57.3001 9.22133 56.5535 9.99133 55.5735 10.0263C54.4535 10.0613 53.5551 9.13966 53.5668 7.938C53.5668 6.818 54.3951 5.908 55.4101 5.873C56.6118 5.82633 57.5451 6.888 57.4168 8.13633ZM62.2585 8.13633C61.5235 8.918 60.7885 9.69966 60.0301 10.5163V5.488C60.7885 6.30466 61.5235 7.08633 62.2585 7.868C62.3635 7.96133 62.3635 8.01966 62.2585 8.13633Z" fill="black"/>
<path d="M39.6602 3.41132H36.5452L33.7568 12.488L36.8602 12.4997L39.6602 3.41132Z" fill="#C34986"/>
<path d="M43.2534 3.41132H40.1384L37.3501 12.488L40.4534 12.4997L43.2534 3.41132Z" fill="#648D9D"/>
</g>
<defs>
<clipPath id="clip0_2868_18278">
<rect width="70" height="12.4833" fill="white" transform="translate(0 0.258331)"/>
</clipPath>
</defs>
</svg>
